<?xml version="1.0" encoding="utf-8"?>
<!-- Generator: Adobe Illustrator 15.1.0, SVG Export Plug-In . SVG Version: 6.00 Build 0)  -->
<!DOCTYPE svg PUBLIC "-//W3C//DTD SVG 1.1//EN" "http://www.w3.org/Graphics/SVG/1.1/DTD/svg11.dtd">
<svg version="1.1" id="Layer_1" xmlns="http://www.w3.org/2000/svg" xmlns:xlink="http://www.w3.org/1999/xlink" x="0px" y="0px"
	 width="1440px" height="9.58px" viewBox="0 0 1440 9.58" enable-background="new 0 0 1440 9.58" xml:space="preserve">
<rect x="1309.164" fill="#5D3517" width="130.836" height="9.58"/>
<g>
	<g>
		<g>
			<polygon fill="#857650" points="1178.248,0 1178.248,9.58 1320.333,9.58 1309.227,0 			"/>
		</g>
		<g>
			<polygon fill="#857650" points="1320.333,9.58 1320.413,9.58 1320.413,9.501 			"/>
		</g>
	</g>
</g>
<g>
	<g>
		<g>
			<polygon fill="#C5BAA8" points="1047.332,0 1047.332,9.58 1189.417,9.58 1178.311,0 			"/>
		</g>
		<g>
			<polygon fill="#C5BAA8" points="1189.417,9.58 1189.497,9.58 1189.497,9.501 			"/>
		</g>
	</g>
</g>
<g>
	<g>
		<g>
			<polygon fill="#6B2A1B" points="916.414,0 916.414,9.58 1058.499,9.58 1047.395,0 			"/>
		</g>
		<g>
			<polygon fill="#6B2A1B" points="1058.499,9.58 1058.58,9.58 1058.58,9.501 			"/>
		</g>
	</g>
</g>
<g>
	<g>
		<g>
			<polygon fill="#CB6328" points="785.498,0 785.498,9.58 927.583,9.58 916.478,0 			"/>
		</g>
		<g>
			<polygon fill="#CB6328" points="927.583,9.58 927.664,9.58 927.664,9.501 			"/>
		</g>
	</g>
</g>
<g>
	<g>
		<g>
			<polygon fill="#BA8C2D" points="654.582,0 654.582,9.58 796.667,9.58 785.562,0 			"/>
		</g>
		<g>
			<polygon fill="#BA8C2D" points="796.667,9.58 796.748,9.58 796.748,9.501 			"/>
		</g>
	</g>
</g>
<g>
	<g>
		<g>
			<polygon fill="#80937F" points="523.666,0 523.666,9.58 665.751,9.58 654.646,0 			"/>
		</g>
		<g>
			<polygon fill="#80937F" points="665.751,9.58 665.832,9.58 665.832,9.501 			"/>
		</g>
	</g>
</g>
<g>
	<g>
		<g>
			<polygon fill="#535535" points="392.749,0 392.749,9.58 534.834,9.58 523.729,0 			"/>
		</g>
		<g>
			<polygon fill="#535535" points="534.834,9.58 534.916,9.58 534.916,9.501 			"/>
		</g>
	</g>
</g>
<g>
	<g>
		<g>
			<polygon fill="#3D829E" points="261.833,0 261.833,9.58 403.918,9.58 392.813,0 			"/>
		</g>
		<g>
			<polygon fill="#3D829E" points="403.918,9.58 403.999,9.58 403.999,9.501 			"/>
		</g>
	</g>
</g>
<g>
	<g>
		<g>
			<polygon fill="#464358" points="130.916,0 130.916,9.58 273.002,9.58 261.896,0 			"/>
		</g>
		<g>
			<polygon fill="#464358" points="273.002,9.58 273.083,9.58 273.083,9.501 			"/>
		</g>
	</g>
</g>
<g>
	<polygon fill="#616262" points="0,0 0,9.58 142.085,9.58 130.98,0 	"/>
	<polygon fill="#616262" points="142.085,9.58 142.166,9.58 142.166,9.501 	"/>
</g>
</svg>
